HIERARCHY
ROOT Hips
{
	OFFSET 0.000000 0.000000 0.000000 
	CHANNELS 6 Xposition Yposition Zposition Zrotation Yrotation Xrotation
	JOINT LeftUpLeg
	{
		OFFSET 1.363060 -1.794630 0.839290 
		CHANNELS 3 Zrotation Yrotation Xrotation
		JOINT LeftLeg
		{
			OFFSET 2.448110 -6.726130 0.000000 
			CHANNELS 3 Zrotation Yrotation Xrotation
			JOINT LeftFoot
			{
				OFFSET 2.562200 -7.039590 0.000000 
				CHANNELS 3 Zrotation Yrotation Xrotation
				JOINT LeftToeBase
				{
					OFFSET 0.157640 -0.433110 2.322550 
					CHANNELS 3 Zrotation Yrotation Xrotation
					End Site
					{
						OFFSET 0.000000 0.000000 0.000000 
					}
				}
			}
		}
	}
	JOINT RightUpLeg
	{
		OFFSET -1.305520 -1.794630 0.839290 
		CHANNELS 3 Zrotation Yrotation Xrotation
		JOINT RightLeg
		{
			OFFSET -2.542530 -6.985550 0.000000 
			CHANNELS 3 Zrotation Yrotation Xrotation
			JOINT RightFoot
			{
				OFFSET -2.568260 -7.056230 0.000000 
				CHANNELS 3 Zrotation Yrotation Xrotation
				JOINT RightToeBase
				{
					OFFSET -0.164730 -0.452590 2.363150 
					CHANNELS 3 Zrotation Yrotation Xrotation
					End Site
					{
						OFFSET 0.000000 0.000000 0.000000 
					}
				}
			}
		}
	}
	JOINT Spine
	{
		OFFSET 0.028270 2.035590 -0.193380 
		CHANNELS 3 Zrotation Yrotation Xrotation
		JOINT Spine1
		{
			OFFSET 0.056720 2.048850 -0.042750 
			CHANNELS 3 Zrotation Yrotation Xrotation
			JOINT Neck1
			{
				OFFSET -0.054170 1.746240 0.172020 
				CHANNELS 3 Zrotation Yrotation Xrotation
				JOINT Head
				{
					OFFSET 0.104070 1.761360 -0.123970 
					CHANNELS 3 Zrotation Yrotation Xrotation
					End Site
					{
						OFFSET 0.000000 0.000000 0.000000 
					}
				}
			}
			JOINT LeftArm
			{
				OFFSET 3.362410 1.200890 -0.311210 
				CHANNELS 3 Zrotation Yrotation Xrotation
				JOINT LeftForeArm
				{
					OFFSET 4.983000 -0.000000 -0.000000 
					CHANNELS 3 Zrotation Yrotation Xrotation
					JOINT LeftHand
					{
						OFFSET 3.483560 -0.000000 -0.000000 
						CHANNELS 3 Zrotation Yrotation Xrotation
						JOINT LeftHandIndex1
						{
							OFFSET 0.715260 -0.000000 -0.000000 
							CHANNELS 3 Zrotation Yrotation Xrotation
							End Site
							{
								OFFSET 0.000000 0.000000 0.000000 
							}
						}
					}
				}
			}
			JOINT RightArm
			{
				OFFSET -3.136600 1.374050 -0.404650 
				CHANNELS 3 Zrotation Yrotation Xrotation
				JOINT RightForeArm
				{
					OFFSET -5.241900 -0.000000 -0.000000 
					CHANNELS 3 Zrotation Yrotation Xrotation
					JOINT RightHand
					{
						OFFSET -3.444170 -0.000000 -0.000000 
						CHANNELS 3 Zrotation Yrotation Xrotation
						JOINT RightHandIndex1
						{
							OFFSET -0.622530 -0.000000 -0.000000 
							CHANNELS 3 Zrotation Yrotation Xrotation
							End Site
							{
								OFFSET 0.000000 0.000000 0.000000 
							}
						}
					}
				}
			}
		}
	}
}
MOTION
Frames: 9
Frame Time: 0.041667
0.774086 18.360229 9.535294 -11.292395 -0.030711 14.650688 -16.922989 -44.804045 17.316332 -3.797476 -2.308188 -3.261958 -14.951882 45.292281 -30.373704 0.520800 4.625200 12.842600 24.629597 29.835499 0.944995 3.623011 -0.698370 2.291044 8.699538 -27.537586 -3.155587 -0.001400 0.244500 -0.671900 24.219124 8.654869 -27.436122 -11.811451 -1.129487 -9.158611 11.730324 -16.140534 28.327573 1.772300 -6.748900 8.240700 -88.074399 11.631234 -23.805254 12.809276 -15.173757 -2.458607 0.154192 1.715101 26.319732 -7.125000 0.000000 0.000000 81.906110 -13.210977 -15.022864 -13.094020 17.447198 -2.552785 1.131164 1.159267 49.425628 7.125000 0.000000 0.000000 
0.773454 18.360755 9.533925 -11.334499 0.016144 14.559753 -17.050978 -44.941419 17.437774 -3.808459 -2.335850 -3.252317 -14.914766 45.276650 -30.630925 0.536900 4.694700 13.039900 24.557295 29.993412 1.019363 3.626881 -0.677658 2.236736 8.757536 -27.674537 -3.277784 -0.017900 -0.864800 2.376700 25.532856 8.579442 -26.280506 -11.990670 -1.299089 -9.437402 11.966601 -16.048793 28.567534 1.877100 -6.684900 8.426100 -88.427333 11.294096 -24.199566 12.838356 -15.209754 -2.468027 0.163158 1.714553 26.152554 -7.125000 0.000000 0.000000 81.404938 -12.826316 -14.646511 -13.007535 17.370888 -2.529563 1.142139 1.147515 49.410869 7.125000 0.000000 0.000000 
0.773243 18.360439 9.534662 -11.395718 0.055107 14.435627 -17.173139 -45.026177 17.557804 -3.816970 -2.363274 -3.235916 -14.911716 45.280376 -30.749562 0.538700 4.702800 13.062700 24.471334 30.016502 1.041027 3.628693 -0.660839 2.201065 8.766444 -27.677977 -3.316593 -0.017200 -0.846800 2.327400 26.962674 8.456906 -24.944912 -12.170456 -1.479831 -9.724280 11.989719 -15.919097 28.842792 1.926200 -6.618800 8.618100 -88.823759 10.878061 -24.741592 12.862687 -15.238741 -2.474948 0.158882 1.718825 26.260124 -7.125000 0.000000 0.000000 80.887427 -12.397981 -14.295025 -12.919905 17.294217 -2.505864 1.150378 1.134572 49.397401 7.125000 0.000000 0.000000 
0.772716 18.359597 9.535716 -11.516094 0.098701 14.295459 -17.197144 -45.061640 17.642658 -3.822072 -2.397084 -3.239940 -14.942105 45.305452 -30.752756 0.535000 4.686700 13.017100 24.475229 30.098829 1.119308 3.631359 -0.640576 2.162434 8.785177 -27.711346 -3.409953 -0.047600 -1.407800 3.871500 28.415042 8.290007 -23.541861 -12.351946 -1.668832 -10.051549 11.811880 -15.747052 29.130619 1.921600 -6.548300 8.808800 -89.214813 10.451610 -25.309796 12.872191 -15.253049 -2.477473 0.153354 1.725450 26.458188 -7.125000 0.000000 0.000000 80.398498 -11.961593 -13.949381 -12.847387 17.238820 -2.487726 1.154415 1.128176 49.368872 7.125000 0.000000 0.000000 
0.768924 18.364337 9.536137 -11.258654 0.020448 14.348933 -17.593577 -45.366189 17.759828 -3.836575 -2.417788 -3.219792 -14.891295 45.349488 -31.262130 0.580000 4.876700 13.557200 23.796054 29.497778 0.330586 3.605732 -0.781647 2.496502 8.582032 -27.110289 -2.920972 -0.086800 -1.900600 5.231200 29.250973 8.053418 -22.614237 -12.194592 -1.799783 -10.244524 11.615379 -15.582116 29.518290 1.896800 -6.475400 9.016300 -89.530652 10.080641 -25.487088 12.930992 -15.298381 -2.477403 0.093180 1.684676 26.181018 -7.125000 0.000000 0.000000 79.878944 -11.467908 -13.609675 -12.723749 17.116401 -2.457517 1.162577 1.139055 48.981049 7.125000 0.000000 0.000000 
0.761762 18.374554 9.561101 -11.306558 0.283968 14.492914 -17.670150 -45.868460 17.771603 -3.842714 -2.485935 -3.260249 -14.941721 45.480365 -31.620615 0.597000 4.946600 13.756200 23.017307 27.085962 -1.855315 3.527084 -1.174612 3.479602 7.823558 -25.049367 -1.460736 -0.054400 -1.505200 4.140000 31.704231 7.446445 -20.223017 -12.261584 -2.203307 -10.389367 11.469804 -15.236470 29.874755 1.940100 -6.313500 9.375000 -90.328784 9.232517 -25.844227 13.093343 -15.446742 -2.496462 -0.025302 1.590971 25.525385 -7.125000 0.000000 0.000000 78.843385 -10.407202 -12.765772 -12.479876 16.855105 -2.402175 1.189281 1.157886 48.243888 7.125000 0.000000 0.000000 
0.757654 18.379505 9.570265 -11.136277 0.275026 14.711520 -17.865191 -46.224818 17.839492 -3.843928 -2.485744 -3.302043 -14.996161 45.673392 -31.979082 0.604700 4.977700 13.844800 22.764756 27.167015 -1.992348 3.530482 -1.165445 3.435517 7.860906 -25.128011 -1.512456 -0.054300 -1.504000 4.136700 31.504159 7.444254 -20.556162 -12.123593 -2.192618 -10.107900 11.493246 -15.234705 29.852762 1.945000 -6.309800 9.360500 -90.370225 9.287912 -25.599177 13.165439 -15.501771 -2.500617 -0.105006 1.535230 25.090371 -7.125000 0.000000 0.000000 78.779935 -10.364280 -12.685598 -12.437040 16.793952 -2.397690 1.203624 1.179542 47.819616 7.125000 0.000000 0.000000 
0.757022 18.379926 9.569422 -11.104542 0.266117 14.734146 -17.938475 -46.334826 17.924822 -3.845862 -2.490867 -3.323279 -15.020006 45.750357 -32.118858 0.603600 4.973300 13.832400 22.723267 27.186518 -2.004931 3.531707 -1.160849 3.421834 7.860029 -25.119328 -1.535917 -0.053100 -1.487700 4.091700 31.405502 7.459188 -20.656808 -12.104758 -2.181078 -10.090976 11.523685 -15.248173 29.884791 1.952400 -6.313000 9.365300 -90.377350 9.330966 -25.630622 13.169925 -15.506174 -2.500770 -0.118017 1.533294 25.035349 -7.125000 0.000000 0.000000 78.791533 -10.395472 -12.702448 -12.451818 16.811992 -2.403495 1.205601 1.182652 47.828297 7.125000 0.000000 0.000000 
0.755126 18.380453 9.568474 -11.088829 0.273308 14.766165 -17.856615 -46.298563 17.814447 -3.842548 -2.492787 -3.336351 -15.019342 45.724913 -32.025395 0.596300 4.943500 13.747500 22.704174 27.286389 -1.993521 3.533044 -1.156498 3.404393 7.891245 -25.201706 -1.577903 -0.055500 -1.520500 4.182300 31.368857 7.472316 -20.703535 -12.083967 -2.172883 -10.078113 11.510608 -15.266501 29.933897 1.948300 -6.322500 9.384400 -90.405333 9.360885 -25.611744 13.186846 -15.524947 -2.505504 -0.116211 1.527939 24.962718 -7.125000 0.000000 0.000000 78.782224 -10.393895 -12.717673 -12.452937 16.812443 -2.403050 1.204924 1.178685 47.799052 7.125000 0.000000 0.000000 
